<?xml version="1.0" standalone="no"?>
<!DOCTYPE svg PUBLIC "-//W3C//DTD SVG 20010904//EN"
 "http://www.w3.org/TR/2001/REC-SVG-20010904/DTD/svg10.dtd">
<svg version="1.0" xmlns="http://www.w3.org/2000/svg"
 width="700.000000pt" height="700.000000pt" viewBox="0 0 700.000000 700.000000"
 preserveAspectRatio="xMidYMid meet">
<metadata>
Created by potrace 1.11, written by Peter Selinger 2001-2013
</metadata>
<g transform="translate(0.000000,700.000000) scale(0.100000,-0.100000)"
fill="#000000" stroke="none">
<path d="M2208 5678 c-37 -72 -123 -237 -239 -455 l-59 -113 77 -1 c43 0 87
-2 98 -4 11 -2 38 -6 61 -10 65 -9 85 -13 162 -34 66 -17 72 -17 68 -2 -3 9
-7 32 -10 51 -3 19 -15 85 -26 145 -11 61 -23 124 -26 140 -3 17 -14 75 -24
130 -10 55 -21 116 -24 135 -3 19 -9 48 -14 63 -7 27 -9 25 -44 -45z"/>
<path d="M1235 5563 c2 -43 6 -148 9 -233 9 -226 17 -405 20 -408 2 -1 32 13
67 32 83 45 201 91 290 114 38 10 71 21 72 24 1 4 -18 30 -43 59 -25 29 -126
148 -224 264 -98 115 -182 214 -186 218 -5 5 -6 -26 -5 -70z"/>
<path d="M3155 5329 c-10 -10 -465 -302 -495 -317 -41 -21 -80 -48 -77 -53 1
-4 43 -34 92 -67 50 -33 128 -96 174 -139 46 -43 86 -79 90 -81 4 -1 38 84 75
190 112 315 166 470 166 474 0 7 -15 3 -25 -7z"/>
<path d="M454 4963 c86 -133 328 -517 333 -531 4 -8 21 10 46 50 56 88 115
164 190 241 36 37 61 69 57 72 -8 5 -163 61 -375 135 -60 21 -148 52 -195 69
-47 17 -88 31 -93 31 -4 0 13 -30 37 -67z"/>
<path d="M1820 4929 c-423 -47 -805 -355 -940 -757 -16 -48 -31 -99 -34 -115
-3 -15 -10 -55 -16 -90 -16 -85 -14 -254 5 -357 39 -221 141 -423 291 -582 78
-83 73 -81 135 -59 70 24 176 42 267 45 80 3 85 -6 15 -23 -123 -31 -278 -125
-383 -230 -82 -83 -94 -98 -152 -194 -124 -206 -158 -461 -95 -723 9 -36 59
-156 85 -204 31 -57 121 -175 164 -216 150 -142 337 -230 547 -260 38 -5 4239
-4 4286 1 429 47 801 311 980 697 l25 53 0 455 0 456 -35 72 c-125 260 -356
479 -625 589 -79 33 -197 67 -266 78 l-41 6 -6 59 c-27 253 -150 548 -313 750
-51 62 -172 184 -223 222 -31 24 -58 46 -62 50 -3 4 -53 37 -112 72 -138 83
-316 153 -459 182 -201 39 -418 39 -613 -1 -316 -66 -626 -252 -825 -495 -25
-30 -48 -57 -51 -60 -18 -15 -122 -186 -157 -260 -42 -87 -95 -238 -108 -304
-4 -22 -11 -35 -18 -32 -34 14 -177 55 -214 61 -55 9 -206 9 -252 0 -245 -44
-442 -160 -576 -338 -86 -115 -169 -319 -173 -429 -1 -15 -10 -18 -51 -18 -27
0 -50 2 -50 4 0 3 4 15 9 28 5 13 12 60 15 105 25 305 211 571 490 698 109 50
195 69 331 71 98 2 137 -2 211 -21 50 -13 100 -28 110 -34 26 -15 141 -61 152
-61 5 0 5 22 0 53 -4 28 -11 74 -14 102 -8 65 -48 204 -82 280 -160 361 -498
618 -883 670 -71 10 -219 12 -289 4z"/>
<path d="M3080 4492 c-5 -2 13 -47 39 -100 27 -53 54 -114 61 -135 6 -21 13
-37 15 -35 2 2 17 39 35 83 17 44 45 104 61 132 16 29 29 55 29 58 0 6 -222 3
-240 -3z"/>
<path d="M689 4226 c-2 -2 -26 -7 -52 -10 -27 -4 -90 -15 -140 -26 -51 -10
-110 -21 -132 -24 -22 -4 -96 -17 -165 -30 -69 -13 -143 -27 -164 -31 l-40 -7
62 -31 c210 -109 333 -173 377 -197 151 -82 195 -103 200 -98 3 3 7 41 10 84
8 139 22 224 61 357 5 15 -6 24 -17 13z"/>
<path d="M629 3523 c-19 -15 -50 -42 -69 -60 -19 -17 -48 -42 -65 -54 -16 -13
-34 -28 -40 -34 -5 -6 -55 -49 -110 -96 -106 -90 -127 -108 -190 -164 l-40
-35 75 4 c41 3 158 8 260 12 102 4 203 8 225 9 22 2 68 3 101 4 l61 1 -38 73
c-50 96 -77 163 -109 275 l-27 94 -34 -29z"/>
</g>
</svg>
